<svg id="Capa_1" enable-background="new 0 0 511.1 511.1" height="512" viewBox="0 0 511.1 511.1" width="512" xmlns="http://www.w3.org/2000/svg"><g id="XMLID_201_"><path id="XMLID_375_" d="m58.14 78.615c-32.059 0-58.14 26.082-58.14 58.14v144.355l49.252 101.793 311.368 49.252h44.801l105.679-353.54h-122.204-15.536l-150.977 27.405-98.513-27.405z" fill="#2ad8f6"/><path id="XMLID_1422_" d="m388.896 78.615h-15.536l-110.052 19.976v318.171l97.312 15.393h44.801l105.679-353.54z" fill="#00c0f1"/><path id="XMLID_820_" d="m90.88 430.155v16.47c0 14.49-6.86 27.41-17.51 35.67-6.49 5.04-14.38 8.34-22.98 9.23-1.53.15-3.07.23-4.64.23h-.62c-5.02 0-9.85-.82-14.37-2.34 0 0 0 0-.01 0-10.69-4.53-20.19-15.12-20.19-27.46 0-8.23 3.34-15.68 8.73-21.07 5.4-5.4 14.84-10.73 23.07-10.73z" fill="#eebb75"/><path id="XMLID_821_" d="m360.62 432.155h-318.26c-8.23 0-15.67 3.33-21.07 8.73-5.39 5.39-8.73 12.84-8.73 21.07 0 12.34 7.5 22.93 18.19 27.46-17.85-6.02-30.75-22.93-30.75-42.79v-165.51l11.69-2.65c3.55-.8 87.65-19.1 145.4 31.33 1.99 1.75 3.95 3.44 5.86 5.08 32.92 28.29 73.6 48.11 117.64 57.33 32.58 6.81 54.7 19.27 65.75 37.02z" fill="#c7eb4b"/><path id="XMLID_406_" d="m373.36 78.615-29.63 9.31c-.42.13-41.95 13.43-66.94 36.79-21.78 20.37-43.84 30.63-65.74 30.63-4.59 0-9.18-.45-13.76-1.36-17.85-3.53-34.93-13.93-52.2-31.81-16.16-16.72-20.22-34.82-21.22-43.56z" fill="#c7eb4b"/><path id="XMLID_1287_" d="m132.199 188.945-21.212-21.213-15.582 15.581-15.582-15.581-21.212 21.213 15.581 15.582-15.581 15.582 21.212 21.213 15.582-15.582 15.582 15.582 21.212-21.213-15.581-15.582z" fill="#ff3636"/><path id="XMLID_70_" d="m183.217 263.758c7.846 0 15.363-6.899 15-15-.364-8.127-6.591-15-15-15-7.846 0-15.363 6.899-15 15 .364 8.127 6.59 15 15 15z" fill="#ad7042"/><path id="XMLID_1980_" d="m262.55 278.425c7.846 0 15.363-6.899 15-15-.364-8.127-6.591-15-15-15-7.846 0-15.363 6.899-15 15 .364 8.127 6.591 15 15 15z" fill="#ad7042"/><path id="XMLID_922_" d="m497.73 48.815c0 8.23-3.34 17.68-8.73 23.07-5.4 5.4-14.85 8.73-23.08 8.73h-45.7v-16.14c0-24.88 20.24-45.13 45.13-45.13h.74c2.48.01 4.91.21 7.28.61h.01c12.85 3.31 24.35 14.98 24.35 28.86z" fill="#e69f34"/><path id="XMLID_932_" d="m511.1 64.475v309.54c0 32.11-26.03 58.14-58.14 58.14h-47.54c5.25-16.59.91-34.79-11.44-47.04-6.52-6.47-15.53-13.7-27.98-21.39-35.68-22.03-55.19-49.39-57.99-81.34-1.9-21.68 4.21-45.12 18.17-69.69 15.85-27.9 62.72-134.08 62.72-134.08h77.02c8.23 0 15.68-3.33 21.08-8.73 5.39-5.39 8.73-12.84 8.73-21.07 0-13.88-9.5-25.55-22.35-28.86 21.37 3.55 37.72 22.16 37.72 44.52z" fill="#a7d22b"/><path id="XMLID_1516_" d="m367.883 279.758c7.846 0 15.363-6.899 15-15-.364-8.127-6.591-15-15-15-7.846 0-15.363 6.899-15 15 .364 8.127 6.591 15 15 15z" fill="#914d24"/><path id="XMLID_78_" d="m441.217 259.758c7.846 0 15.363-6.899 15-15-.364-8.127-6.591-15-15-15-7.846 0-15.363 6.899-15 15 .364 8.127 6.59 15 15 15z" fill="#914d24"/><path id="XMLID_242_" d="m263.308 78.615v57.386c4.503-3.335 8.999-7.093 13.482-11.286 24.99-23.36 66.52-36.66 66.94-36.79l29.63-9.31z" fill="#a7d22b"/><path id="XMLID_1407_" d="m263.308 432.155h97.313l-14.276-22.929c-11.054-17.752-33.176-30.208-65.752-37.023-5.824-1.219-11.587-2.628-17.284-4.213v64.165z" fill="#a7d22b"/><path id="XMLID_1408_" d="m263.308 248.464v29.92c7.564-.426 14.593-7.12 14.242-14.959-.353-7.879-6.222-14.559-14.242-14.961z" fill="#914d24"/></g></svg>