<?xml version="1.0" encoding="UTF-8" standalone="no"?>
<svg
   xmlns:dc="http://purl.org/dc/elements/1.1/"
   xmlns:cc="http://creativecommons.org/ns#"
   xmlns:rdf="http://www.w3.org/1999/02/22-rdf-syntax-ns#"
   xmlns:svg="http://www.w3.org/2000/svg"
   xmlns="http://www.w3.org/2000/svg"
   xmlns:sodipodi="http://sodipodi.sourceforge.net/DTD/sodipodi-0.dtd"
   xmlns:inkscape="http://www.inkscape.org/namespaces/inkscape"
   inkscape:version="1.0 (1.0+r73+1)"
   sodipodi:docname="gps.svg"
   xml:space="preserve"
   style="enable-background:new 0 0 486.3 486.3;"
   viewBox="0 0 486.3 486.3"
   y="0px"
   x="0px"
   id="Layer_1"
   version="1.1"><metadata
   id="metadata138"><rdf:RDF><cc:Work
       rdf:about=""><dc:format>image/svg+xml</dc:format><dc:type
         rdf:resource="http://purl.org/dc/dcmitype/StillImage" /></cc:Work></rdf:RDF></metadata><defs
   id="defs136" /><sodipodi:namedview
   inkscape:current-layer="Layer_1"
   inkscape:window-maximized="1"
   inkscape:window-y="21"
   inkscape:window-x="0"
   inkscape:cy="243.08639"
   inkscape:cx="235.45314"
   inkscape:zoom="1.6820892"
   showgrid="false"
   id="namedview134"
   inkscape:window-height="1022"
   inkscape:window-width="1848"
   inkscape:pageshadow="2"
   inkscape:pageopacity="0"
   guidetolerance="10"
   gridtolerance="10"
   objecttolerance="10"
   borderopacity="1"
   bordercolor="#666666"
   pagecolor="#ffffff" />
<g
   transform="matrix(0.9,0,0,0.9,24.315,24.315)"
   id="g101">
	<path
   id="path93"
   d="m 243.15,0 v 104.4 c 44.11,0 80,35.88 80,80 0,44.11 -35.89,80 -80,80 V 486.3 L 389.58,302.2 C 415.87,268.95 429.77,228.99 429.77,186.62 429.77,83.72 346.05,0 243.15,0 Z"
   style="fill:#cd2a00" />
	<path
   id="path95"
   d="m 323.15,184.4 c 0,-44.12 -35.89,-80 -80,-80 v 160 c 44.11,0 80,-35.89 80,-80 z"
   style="fill:#d8d7da" />
	<path
   id="path97"
   d="m 163.15,184.4 c 0,-44.12 35.89,-80 80,-80 V 0 C 140.25,0 56.53,83.72 56.53,186.62 c 0,42.37 13.9,82.33 40.23,115.62 L 243.15,486.3 V 264.4 c -44.11,0 -80,-35.89 -80,-80 z"
   style="fill:#ff3501" />
	<path
   id="path99"
   d="m 163.15,184.4 c 0,44.11 35.89,80 80,80 v -160 c -44.11,0 -80,35.88 -80,80 z"
   style="fill:#ffffff" />
</g>
<g
   id="g103">
</g>
<g
   id="g105">
</g>
<g
   id="g107">
</g>
<g
   id="g109">
</g>
<g
   id="g111">
</g>
<g
   id="g113">
</g>
<g
   id="g115">
</g>
<g
   id="g117">
</g>
<g
   id="g119">
</g>
<g
   id="g121">
</g>
<g
   id="g123">
</g>
<g
   id="g125">
</g>
<g
   id="g127">
</g>
<g
   id="g129">
</g>
<g
   id="g131">
</g>
</svg>
